<mxfile host="Electron" modified="2024-08-28T18:47:57.144Z" agent="Mozilla/5.0 (Windows NT 10.0; Win64; x64) AppleWebKit/537.36 (KHTML, like Gecko) draw.io/23.0.2 Chrome/120.0.6099.109 Electron/28.1.0 Safari/537.36" etag="InDz1mrpyLgKNAh5ZPSJ" version="23.0.2" type="device">
  <diagram name="PÃ¡gina-1" id="duVDRbQhCmOJp6XNImQs">
    <mxGraphModel dx="914" dy="939" grid="0" gridSize="10" guides="1" tooltips="1" connect="1" arrows="1" fold="1" page="0" pageScale="1" pageWidth="827" pageHeight="1169" math="0" shadow="0">
      <root>
        <mxCell id="0" />
        <mxCell id="1" parent="0" />
        <mxCell id="J-X6CKt-R_LI05trlp7F-16" style="edgeStyle=orthogonalEdgeStyle;rounded=0;orthogonalLoop=1;jettySize=auto;html=1;entryX=0.5;entryY=0;entryDx=0;entryDy=0;fontSize=12;startSize=8;endSize=8;elbow=vertical;endArrow=none;endFill=0;" edge="1" parent="1" source="J-X6CKt-R_LI05trlp7F-1" target="J-X6CKt-R_LI05trlp7F-15">
          <mxGeometry relative="1" as="geometry">
            <Array as="points">
              <mxPoint x="-20" y="131" />
            </Array>
          </mxGeometry>
        </mxCell>
        <mxCell id="J-X6CKt-R_LI05trlp7F-1" value="Usuario" style="rounded=0;whiteSpace=wrap;html=1;fontSize=16;" vertex="1" parent="1">
          <mxGeometry x="-118" y="5" width="120" height="60" as="geometry" />
        </mxCell>
        <mxCell id="J-X6CKt-R_LI05trlp7F-2" value="Lsita de reproduccion" style="rounded=0;whiteSpace=wrap;html=1;fontSize=16;" vertex="1" parent="1">
          <mxGeometry x="-97" y="258" width="190" height="60" as="geometry" />
        </mxCell>
        <mxCell id="J-X6CKt-R_LI05trlp7F-14" style="edgeStyle=orthogonalEdgeStyle;rounded=0;orthogonalLoop=1;jettySize=auto;html=1;entryX=0;entryY=0.5;entryDx=0;entryDy=0;fontSize=12;startSize=8;endSize=8;elbow=vertical;endArrow=none;endFill=0;" edge="1" parent="1" source="J-X6CKt-R_LI05trlp7F-3" target="J-X6CKt-R_LI05trlp7F-5">
          <mxGeometry relative="1" as="geometry" />
        </mxCell>
        <mxCell id="J-X6CKt-R_LI05trlp7F-3" value="Cancion" style="rounded=0;whiteSpace=wrap;html=1;fontSize=16;" vertex="1" parent="1">
          <mxGeometry x="303" y="5" width="120" height="60" as="geometry" />
        </mxCell>
        <mxCell id="J-X6CKt-R_LI05trlp7F-4" value="Genero" style="rounded=0;whiteSpace=wrap;html=1;fontSize=16;" vertex="1" parent="1">
          <mxGeometry x="377" y="264" width="120" height="60" as="geometry" />
        </mxCell>
        <mxCell id="J-X6CKt-R_LI05trlp7F-5" value="nombre" style="ellipse;whiteSpace=wrap;html=1;fontSize=16;" vertex="1" parent="1">
          <mxGeometry x="545" y="-85" width="120" height="80" as="geometry" />
        </mxCell>
        <mxCell id="J-X6CKt-R_LI05trlp7F-12" style="edgeStyle=none;curved=1;rounded=0;orthogonalLoop=1;jettySize=auto;html=1;fontSize=12;startSize=8;endSize=8;endArrow=none;endFill=0;" edge="1" parent="1" source="J-X6CKt-R_LI05trlp7F-6">
          <mxGeometry relative="1" as="geometry">
            <mxPoint x="4" y="38" as="targetPoint" />
          </mxGeometry>
        </mxCell>
        <mxCell id="J-X6CKt-R_LI05trlp7F-21" style="edgeStyle=none;curved=1;rounded=0;orthogonalLoop=1;jettySize=auto;html=1;entryX=0;entryY=0.5;entryDx=0;entryDy=0;fontSize=12;startSize=8;endSize=8;endArrow=none;endFill=0;" edge="1" parent="1" source="J-X6CKt-R_LI05trlp7F-6" target="J-X6CKt-R_LI05trlp7F-3">
          <mxGeometry relative="1" as="geometry" />
        </mxCell>
        <mxCell id="J-X6CKt-R_LI05trlp7F-6" value="registra" style="rhombus;whiteSpace=wrap;html=1;fontSize=16;" vertex="1" parent="1">
          <mxGeometry x="83" y="-2" width="127" height="80" as="geometry" />
        </mxCell>
        <mxCell id="J-X6CKt-R_LI05trlp7F-19" style="edgeStyle=orthogonalEdgeStyle;rounded=0;orthogonalLoop=1;jettySize=auto;html=1;fontSize=12;startSize=8;endSize=8;endArrow=none;endFill=0;" edge="1" parent="1" source="J-X6CKt-R_LI05trlp7F-7" target="J-X6CKt-R_LI05trlp7F-2">
          <mxGeometry relative="1" as="geometry">
            <Array as="points">
              <mxPoint x="59" y="160" />
            </Array>
          </mxGeometry>
        </mxCell>
        <mxCell id="J-X6CKt-R_LI05trlp7F-7" value="contiene" style="rhombus;whiteSpace=wrap;html=1;fontSize=16;" vertex="1" parent="1">
          <mxGeometry x="100" y="134" width="93" height="51" as="geometry" />
        </mxCell>
        <mxCell id="J-X6CKt-R_LI05trlp7F-10" style="edgeStyle=orthogonalEdgeStyle;rounded=0;orthogonalLoop=1;jettySize=auto;html=1;fontSize=12;startSize=8;endSize=8;endArrow=none;endFill=0;" edge="1" parent="1" source="J-X6CKt-R_LI05trlp7F-8">
          <mxGeometry relative="1" as="geometry">
            <mxPoint x="363" y="68" as="targetPoint" />
            <Array as="points">
              <mxPoint x="429" y="94" />
              <mxPoint x="364" y="94" />
            </Array>
          </mxGeometry>
        </mxCell>
        <mxCell id="J-X6CKt-R_LI05trlp7F-20" style="edgeStyle=none;curved=1;rounded=0;orthogonalLoop=1;jettySize=auto;html=1;fontSize=12;startSize=8;endSize=8;endArrow=none;endFill=0;" edge="1" parent="1" source="J-X6CKt-R_LI05trlp7F-8" target="J-X6CKt-R_LI05trlp7F-7">
          <mxGeometry relative="1" as="geometry">
            <mxPoint x="194" y="162" as="targetPoint" />
          </mxGeometry>
        </mxCell>
        <mxCell id="J-X6CKt-R_LI05trlp7F-8" value="pertenece" style="rhombus;whiteSpace=wrap;html=1;fontSize=16;" vertex="1" parent="1">
          <mxGeometry x="372" y="134" width="103" height="56" as="geometry" />
        </mxCell>
        <mxCell id="J-X6CKt-R_LI05trlp7F-9" style="edgeStyle=orthogonalEdgeStyle;rounded=0;orthogonalLoop=1;jettySize=auto;html=1;entryX=0.6;entryY=0.033;entryDx=0;entryDy=0;entryPerimeter=0;fontSize=12;startSize=8;endSize=8;endArrow=none;endFill=0;" edge="1" parent="1" source="J-X6CKt-R_LI05trlp7F-8" target="J-X6CKt-R_LI05trlp7F-4">
          <mxGeometry relative="1" as="geometry" />
        </mxCell>
        <mxCell id="J-X6CKt-R_LI05trlp7F-18" value="" style="edgeStyle=orthogonalEdgeStyle;rounded=0;orthogonalLoop=1;jettySize=auto;html=1;fontSize=12;startSize=8;endSize=8;endArrow=none;endFill=0;" edge="1" parent="1" source="J-X6CKt-R_LI05trlp7F-15" target="J-X6CKt-R_LI05trlp7F-2">
          <mxGeometry relative="1" as="geometry" />
        </mxCell>
        <mxCell id="J-X6CKt-R_LI05trlp7F-15" value="crea" style="rhombus;whiteSpace=wrap;html=1;fontSize=16;" vertex="1" parent="1">
          <mxGeometry x="-106" y="161" width="93" height="51" as="geometry" />
        </mxCell>
        <mxCell id="J-X6CKt-R_LI05trlp7F-22" value="1:N" style="text;html=1;strokeColor=none;fillColor=none;align=center;verticalAlign=middle;whiteSpace=wrap;rounded=0;fontSize=16;" vertex="1" parent="1">
          <mxGeometry x="-38" y="153" width="60" height="30" as="geometry" />
        </mxCell>
        <mxCell id="J-X6CKt-R_LI05trlp7F-23" value="1:N" style="text;html=1;strokeColor=none;fillColor=none;align=center;verticalAlign=middle;whiteSpace=wrap;rounded=0;fontSize=16;" vertex="1" parent="1">
          <mxGeometry x="157" y="65" width="60" height="30" as="geometry" />
        </mxCell>
        <mxCell id="J-X6CKt-R_LI05trlp7F-24" value="N:M" style="text;html=1;strokeColor=none;fillColor=none;align=center;verticalAlign=middle;whiteSpace=wrap;rounded=0;fontSize=16;" vertex="1" parent="1">
          <mxGeometry x="177" y="120" width="60" height="30" as="geometry" />
        </mxCell>
        <mxCell id="J-X6CKt-R_LI05trlp7F-25" value="1:N" style="text;html=1;strokeColor=none;fillColor=none;align=center;verticalAlign=middle;whiteSpace=wrap;rounded=0;fontSize=16;" vertex="1" parent="1">
          <mxGeometry x="457" y="179" width="60" height="30" as="geometry" />
        </mxCell>
        <mxCell id="J-X6CKt-R_LI05trlp7F-26" value="0:N" style="text;html=1;strokeColor=none;fillColor=none;align=center;verticalAlign=middle;whiteSpace=wrap;rounded=0;fontSize=16;" vertex="1" parent="1">
          <mxGeometry x="240" y="-7" width="60" height="30" as="geometry" />
        </mxCell>
        <mxCell id="J-X6CKt-R_LI05trlp7F-27" value="0:N" style="text;html=1;strokeColor=none;fillColor=none;align=center;verticalAlign=middle;whiteSpace=wrap;rounded=0;fontSize=16;" vertex="1" parent="1">
          <mxGeometry x="317" y="76" width="60" height="30" as="geometry" />
        </mxCell>
      </root>
    </mxGraphModel>
  </diagram>
</mxfile>
